<svg width="19" height="18" viewBox="0 0 19 18" fill="none" xmlns="http://www.w3.org/2000/svg">
<path fill-rule="evenodd" clip-rule="evenodd" d="M9.50081 0.466675C7.18327 0.466675 6.89243 0.476808 5.98219 0.518231C5.07374 0.559831 4.45364 0.703655 3.91106 0.914679C3.34981 1.13264 2.87372 1.4242 2.3994 1.89869C1.92473 2.37301 1.63317 2.8491 1.4145 3.41017C1.20294 3.95293 1.05894 4.57321 1.01805 5.4813C0.977342 6.39154 0.966675 6.68256 0.966675 9.0001C0.966675 11.3176 0.976986 11.6076 1.01823 12.5178C1.06001 13.4263 1.20383 14.0464 1.41468 14.589C1.63282 15.1502 1.92437 15.6263 2.39887 16.1006C2.87301 16.5753 3.3491 16.8676 3.90999 17.0855C4.45293 17.2965 5.07321 17.4404 5.98148 17.482C6.89171 17.5234 7.18238 17.5335 9.49974 17.5335C11.8175 17.5335 12.1074 17.5234 13.0176 17.482C13.9261 17.4404 14.5469 17.2965 15.0898 17.0855C15.6509 16.8676 16.1263 16.5753 16.6004 16.1006C17.0751 15.6263 17.3667 15.1502 17.5853 14.5891C17.7951 14.0464 17.9391 13.4261 17.9818 12.518C18.0227 11.6078 18.0333 11.3176 18.0333 9.0001C18.0333 6.68256 18.0227 6.39171 17.9818 5.48148C17.9391 4.57303 17.7951 3.95293 17.5853 3.41035C17.3667 2.8491 17.0751 2.37301 16.6004 1.89869C16.1258 1.42402 15.6511 1.13246 15.0893 0.914679C14.5453 0.703655 13.9249 0.559831 13.0164 0.518231C12.1062 0.476808 11.8164 0.466675 9.49814 0.466675H9.50081ZM8.73525 2.00444C8.96245 2.00409 9.21597 2.00444 9.50077 2.00444C11.7792 2.00444 12.0492 2.01262 12.949 2.05351C13.781 2.09156 14.2326 2.23058 14.5334 2.34738C14.9316 2.50205 15.2155 2.68694 15.514 2.98561C15.8127 3.28428 15.9976 3.56873 16.1526 3.96695C16.2694 4.2674 16.4086 4.71896 16.4464 5.55097C16.4873 6.45054 16.4962 6.72076 16.4962 8.99812C16.4962 11.2755 16.4873 11.5457 16.4464 12.4453C16.4084 13.2773 16.2694 13.7288 16.1526 14.0293C15.9979 14.4275 15.8127 14.7111 15.514 15.0096C15.2153 15.3082 14.9318 15.4931 14.5334 15.6478C14.2329 15.7651 13.781 15.9038 12.949 15.9418C12.0494 15.9827 11.7792 15.9916 9.50077 15.9916C7.22217 15.9916 6.95212 15.9827 6.05256 15.9418C5.22055 15.9034 4.76899 15.7644 4.46801 15.6476C4.06978 15.4929 3.78533 15.3081 3.48666 15.0094C3.18799 14.7107 3.0031 14.427 2.84808 14.0286C2.73128 13.7281 2.59208 13.2766 2.55421 12.4446C2.51332 11.545 2.50514 11.2748 2.50514 8.99598C2.50514 6.7172 2.51332 6.4484 2.55421 5.54884C2.59226 4.71683 2.73128 4.26527 2.84808 3.96447C3.00275 3.56624 3.18799 3.28179 3.48666 2.98312C3.78533 2.68445 4.06978 2.49956 4.46801 2.34454C4.76881 2.2272 5.22055 2.08853 6.05256 2.05031C6.83977 2.01476 7.14484 2.00409 8.73525 2.00231V2.00444ZM14.0558 3.42135C13.4905 3.42135 13.0318 3.87949 13.0318 4.44501C13.0318 5.01035 13.4905 5.46902 14.0558 5.46902C14.6212 5.46902 15.0799 5.01035 15.0799 4.44501C15.0799 3.87967 14.6212 3.42135 14.0558 3.42135ZM9.50082 4.61781C7.08071 4.61781 5.11855 6.57996 5.11855 9.00007C5.11855 11.4202 7.08071 13.3815 9.50082 13.3815C11.9209 13.3815 13.8824 11.4202 13.8824 9.00007C13.8824 6.57996 11.9209 4.61781 9.50082 4.61781ZM9.50079 6.1556C11.0717 6.1556 12.3453 7.42903 12.3453 9.00007C12.3453 10.5709 11.0717 11.8445 9.50079 11.8445C7.92975 11.8445 6.65632 10.5709 6.65632 9.00007C6.65632 7.42903 7.92975 6.1556 9.50079 6.1556Z" fill="white"/>
</svg>
