<svg width="17" height="17" viewBox="0 0 17 17" fill="none" xmlns="http://www.w3.org/2000/svg">
<path d="M9.22302 13.7127L13.1605 16.2127C13.6683 16.533 14.2933 16.0564 14.1449 15.4705L13.0043 10.9861C12.9734 10.8618 12.9783 10.7313 13.0184 10.6097C13.0585 10.488 13.1321 10.3802 13.2308 10.2986L16.7621 7.35328C17.223 6.97047 16.9886 6.19703 16.3871 6.15797L11.7777 5.86109C11.6519 5.85377 11.531 5.80998 11.4297 5.73506C11.3285 5.66014 11.2512 5.55734 11.2074 5.43922L9.48864 1.11109C9.44315 0.986016 9.36026 0.877969 9.25125 0.801619C9.14223 0.72527 9.01236 0.684315 8.87927 0.684315C8.74618 0.684315 8.61631 0.72527 8.50729 0.801619C8.39827 0.877969 8.31539 0.986016 8.26989 1.11109L6.55114 5.43922C6.50734 5.55734 6.43008 5.66014 6.32879 5.73506C6.22751 5.80998 6.1066 5.85377 5.98083 5.86109L1.37146 6.15797C0.769894 6.19703 0.535519 6.97047 0.996457 7.35328L4.52771 10.2986C4.62641 10.3802 4.70004 10.488 4.74012 10.6097C4.78021 10.7313 4.78511 10.8618 4.75427 10.9861L3.69958 15.1423C3.51989 15.8455 4.26989 16.4158 4.87146 16.033L8.53552 13.7127C8.63827 13.6473 8.75751 13.6126 8.87927 13.6126C9.00103 13.6126 9.12027 13.6473 9.22302 13.7127Z" fill="#FA8232"/>
</svg>
