<svg width="16" height="14" viewBox="0 0 16 14" fill="none" xmlns="http://www.w3.org/2000/svg">
<path fill-rule="evenodd" clip-rule="evenodd" d="M8.0208 4.00498L8.05438 4.55861L7.49479 4.49082C5.45791 4.23095 3.67843 3.34965 2.16756 1.86952L1.42891 1.13511L1.23865 1.67744C0.83575 2.88641 1.09316 4.16316 1.93253 5.02186C2.3802 5.4964 2.27948 5.5642 1.50725 5.28173C1.23865 5.19134 1.00363 5.12355 0.981242 5.15744C0.9029 5.23653 1.1715 6.26472 1.38414 6.67147C1.67513 7.2364 2.26828 7.79004 2.9174 8.1177L3.46579 8.37757L2.81668 8.38887C2.18994 8.38887 2.16756 8.40017 2.23471 8.63744C2.45854 9.37186 3.34268 10.1515 4.32755 10.4904L5.02143 10.7277L4.41708 11.0893C3.52175 11.609 2.46973 11.9028 1.41772 11.9254C0.914092 11.9367 0.5 11.9819 0.5 12.0158C0.5 12.1287 1.86538 12.7615 2.65999 13.01C5.04382 13.7445 7.87531 13.4281 10.0017 12.1739C11.5126 11.2813 13.0235 9.50744 13.7286 7.79004C14.1091 6.87485 14.4896 5.20264 14.4896 4.40043C14.4896 3.88069 14.5232 3.8129 15.1499 3.19147C15.5192 2.82991 15.8662 2.43446 15.9333 2.32147C16.0452 2.1068 16.034 2.1068 15.4633 2.29887C14.512 2.63783 14.3777 2.59264 14.8477 2.0842C15.1947 1.72264 15.6088 1.06732 15.6088 0.875237C15.6088 0.841341 15.4409 0.897835 15.2506 0.999523C15.0492 1.11251 14.6015 1.28199 14.2658 1.38368L13.6614 1.57576L13.113 1.2029C12.8108 0.999523 12.3856 0.773549 12.1617 0.705757C11.5909 0.547575 10.718 0.570172 10.2032 0.750952C8.80422 1.25939 7.92008 2.57004 8.0208 4.00498Z" fill="white"/>
</svg>
