<svg width="19" height="13" viewBox="0 0 19 13" fill="none" xmlns="http://www.w3.org/2000/svg">
<path fill-rule="evenodd" clip-rule="evenodd" d="M16.1677 0.49952C16.9021 0.70103 17.4804 1.29478 17.6767 2.04878C18.0333 3.41533 18.0333 6.26663 18.0333 6.26663C18.0333 6.26663 18.0333 9.11784 17.6767 10.4845C17.4804 11.2385 16.9021 11.8322 16.1677 12.0338C14.8369 12.4 9.50001 12.4 9.50001 12.4C9.50001 12.4 4.16309 12.4 2.83218 12.0338C2.09783 11.8322 1.5195 11.2385 1.32323 10.4845C0.966675 9.11784 0.966675 6.26663 0.966675 6.26663C0.966675 6.26663 0.966675 3.41533 1.32323 2.04878C1.5195 1.29478 2.09783 0.70103 2.83218 0.49952C4.16309 0.133301 9.50001 0.133301 9.50001 0.133301C9.50001 0.133301 14.8369 0.133301 16.1677 0.49952ZM7.90002 3.86658V9.19991L12.1667 6.53335L7.90002 3.86658Z" fill="white"/>
</svg>
